# xmcd
#
# Track frame offsets: 
#        183
#        16490
#        29970
#        41368
#        56940
#        72123
#        83868
#        102000
#        122335
#        136993
#        148558
#        161595
#        173805
#        188833
#        202908
#        216388
#        227338
#        245610
#        265010
#        279878
#
# Disc length: 3946 seconds
#
# Revision: 2
# Processed by: cddbd v1.5.2PL0 Copyright (c) Steve Scherf et al.
# Submitted via: ExactAudioCopy v1.0b1
#
DISCID=170f6814
DTITLE=Various Artist - Cool Jazz 4
DYEAR=1995
DGENRE=Jazz
TTITLE0=Dizzy Gillespie - Desafinado
TTITLE1=Duke Ellington - Magenta Haze
TTITLE2=Peggy Lee - I Can't Give You Anything But Love
TTITLE3=Billie Holiday - Blue Moon
TTITLE4=Nina Simone - Love Me Or Leave Me
TTITLE5=Django Reinhardt - Manoir De Mes Reves
TTITLE6=Ben Webster - Come Sunday
TTITLE7=Dexter Gordon - Willow Weep For Me
TTITLE8=Nat King Cole - That Ain't Right
TTITLE9=Ray Charles - What Have I Done
TTITLE10=Count Basie - Summertime
TTITLE11=Errol Garner - Undecided
TTITLE12=Eydie Gorme - 'Round Midnight
TTITLE13=Ella Fitzgerald - Basin Street Blues
TTITLE14=Etta James - At Last
TTITLE15=John Lee Hooker - No Shoes
TTITLE16=John Coltrane - Naima
TTITLE17=Count Basie - Lil Darlin'
TTITLE18=Percy Sledge - Warm And Tender Love
TTITLE19=Harold Melvin - If You Don't Know Me By Now
EXTD=YEAR: 1995
EXTT0=
EXTT1=
EXTT2=
EXTT3=
EXTT4=
EXTT5=
EXTT6=
EXTT7=
EXTT8=
EXTT9=
EXTT10=
EXTT11=
EXTT12=
EXTT13=
EXTT14=
EXTT15=
EXTT16=
EXTT17=
EXTT18=
EXTT19=
PLAYORDER=
